<?xml version="1.0" standalone="no"?>
<!DOCTYPE svg PUBLIC "-//W3C//DTD SVG 1.1//EN" "http://www.w3.org/Graphics/SVG/1.1/DTD/svg11.dtd">
<svg t="1720957117439" class="icon" viewBox="0 0 1024 1024" version="1.1"
    xmlns="http://www.w3.org/2000/svg" p-id="4442" xmlns:xlink="http://www.w3.org/1999/xlink"
    width="200" height="200">
    <path
        d="M129.7 695.7c-1.6 0-3.2-0.4-4.7-1.3-26-16-42.9-36.3-50-60.2-15-50.7 15.6-110.9 86.2-169.6 68.6-57 167.4-106.5 278.2-139.4 103.4-30.7 207.4-43.6 292.9-36.5 86.9 7.2 148.2 34.8 172.7 77.5 3.5 6.1 6.3 12.6 8.3 19.3 1.4 4.8-1.3 9.8-6.1 11.2-4.8 1.4-9.8-1.3-11.2-6.1-1.6-5.3-3.8-10.5-6.6-15.4-21.5-37.4-77.8-61.8-158.6-68.5-83.3-6.9-185 5.8-286.3 35.8C336 374.7 239.4 423 172.7 478.4c-32 26.6-55.3 53.3-69.2 79.4-13.8 25.9-17.6 49.9-11.3 71.3 5.8 19.6 20 36.4 42.1 50 4.2 2.6 5.6 8.1 3 12.4-1.6 2.7-4.6 4.2-7.6 4.2z"
        fill="#330867" p-id="4443"></path>
    <path
        d="M525.2 815.5c-80.8 0-156.8-31.5-214-88.6-57.2-57.2-88.6-133.1-88.6-214s31.5-156.8 88.6-214c57.2-57.2 133.1-88.6 214-88.6s156.8 31.5 214 88.6c57.2 57.2 88.6 133.1 88.6 214s-31.5 156.8-88.6 214C682 784 606 815.5 525.2 815.5z"
        fill="#66C1FF" p-id="4444"></path>
    <path
        d="M525.2 219.3c162.2 0 293.6 131.5 293.6 293.6S687.3 806.5 525.2 806.5C363 806.5 231.6 675 231.6 512.9S363 219.3 525.2 219.3m0-18c-42.1 0-82.9 8.2-121.3 24.5-37.1 15.7-70.4 38.2-99 66.8-28.6 28.6-51.1 61.9-66.8 99-16.3 38.4-24.5 79.2-24.5 121.3s8.2 82.9 24.5 121.3c15.7 37.1 38.2 70.4 66.8 99 28.6 28.6 61.9 51.1 99 66.8 38.4 16.3 79.2 24.5 121.3 24.5s82.9-8.2 121.3-24.5c37.1-15.7 70.4-38.2 99-66.8s51.1-61.9 66.8-99c16.3-38.4 24.5-79.2 24.5-121.3s-8.2-82.9-24.5-121.3c-15.7-37.1-38.2-70.4-66.8-99-28.6-28.6-61.9-51.1-99-66.8-38.5-16.3-79.3-24.5-121.3-24.5z"
        fill="#330867" p-id="4445"></path>
    <path d="M538 384.2m-48.4 0a48.4 48.4 0 1 0 96.8 0 48.4 48.4 0 1 0-96.8 0Z" fill="#41AAD8"
        p-id="4446"></path>
    <path
        d="M538 338.7c25.1 0 45.4 20.3 45.4 45.4 0 25.1-20.3 45.4-45.4 45.4-25.1 0-45.4-20.3-45.4-45.4-0.1-25 20.3-45.4 45.4-45.4m0-6c-28.4 0-51.4 23.1-51.4 51.4 0 28.4 23.1 51.4 51.4 51.4 28.4 0 51.4-23.1 51.4-51.4 0-28.3-23-51.4-51.4-51.4z"
        fill="#330867" p-id="4447"></path>
    <path
        d="M449.2 587.9c-9.5 0-17.2-7.7-17.2-17.2s7.7-17.2 17.2-17.2 17.2 7.7 17.2 17.2-7.7 17.2-17.2 17.2z"
        fill="#41AAD8" p-id="4448"></path>
    <path
        d="M449.2 556.4c7.9 0 14.2 6.4 14.2 14.2s-6.4 14.2-14.2 14.2c-7.9 0-14.2-6.4-14.2-14.2s6.3-14.2 14.2-14.2m0-6c-11.1 0-20.2 9.1-20.2 20.2s9.1 20.2 20.2 20.2 20.2-9.1 20.2-20.2-9.1-20.2-20.2-20.2z"
        fill="#330867" p-id="4449"></path>
    <path
        d="M641.2 782.7c-35.6 15.3-74.8 23.8-116 23.8-162.2 0-293.6-131.5-293.6-293.6 0-40.5 8.2-79.1 23-114.2-12 251.1 173.6 407.8 386.6 384z"
        fill="#18A3D3" p-id="4450"></path>
    <path d="M899 384.2m-56.8 0a56.8 56.8 0 1 0 113.6 0 56.8 56.8 0 1 0-113.6 0Z" fill="#FFE08A"
        p-id="4451"></path>
    <path
        d="M899 449.9c-36.3 0-65.8-29.5-65.8-65.8s29.5-65.8 65.8-65.8 65.8 29.5 65.8 65.8-29.6 65.8-65.8 65.8z m0-113.5c-26.3 0-47.8 21.4-47.8 47.8S872.6 432 899 432s47.8-21.4 47.8-47.8-21.5-47.8-47.8-47.8z"
        fill="#330867" p-id="4452"></path>
    <path d="M136.2 686.7m-72.9 0a72.9 72.9 0 1 0 145.8 0 72.9 72.9 0 1 0-145.8 0Z" fill="#FC6B79"
        p-id="4453"></path>
    <path
        d="M136.2 768.6c-45.2 0-81.9-36.7-81.9-81.9s36.7-81.9 81.9-81.9 81.9 36.7 81.9 81.9c0 45.1-36.7 81.9-81.9 81.9z m0-145.8c-35.2 0-63.9 28.7-63.9 63.9s28.7 63.9 63.9 63.9 63.9-28.7 63.9-63.9-28.6-63.9-63.9-63.9z"
        fill="#330867" p-id="4454"></path>
    <path
        d="M303.8 732.8H302c-75.2-0.2-136.4-13.5-177.1-38.4-4.2-2.6-5.6-8.1-3-12.4 2.6-4.2 8.1-5.6 12.4-3 37.8 23.2 95.8 35.6 167.7 35.8h1.7c73.9 0 156.9-13 240-37.7 108.5-32.2 205.1-80.5 271.8-135.9 32-26.6 55.3-53.3 69.2-79.4 13.8-25.9 17.6-49.9 11.3-71.3-1.6-5.3-3.8-10.5-6.6-15.4-2.5-4.3-1-9.8 3.3-12.3s9.8-1 12.3 3.3c3.5 6.1 6.3 12.6 8.3 19.3 15 50.7-15.6 110.9-86.2 169.6-68.5 57-167.3 106.5-278.1 139.4-84.8 25.1-169.5 38.4-245.2 38.4z"
        fill="#330867" p-id="4455"></path>
</svg>